<?xml version="1.0" encoding="utf-8"?>
<svg xmlns="http://www.w3.org/2000/svg" version="1.2" viewBox="0 0 180 39">
	<title>A musical score.</title>
	<polyline points="3.89353069616e-08,8.6748299668 179.999991635,8.6748299668" style="stroke-linejoin:bevel;stroke:#000000;stroke-width:0.231477009591;fill:none"/>
	<polyline points="3.89353069616e-08,13.6864539668 179.999991635,13.6864539668" style="stroke-linejoin:bevel;stroke:#000000;stroke-width:0.231477009591;fill:none"/>
	<polyline points="3.89353069616e-08,18.6980779668 179.999991635,18.6980779668" style="stroke-linejoin:bevel;stroke:#000000;stroke-width:0.231477009591;fill:none"/>
	<polyline points="3.89353069616e-08,23.7097019668 179.999991635,23.7097019668" style="stroke-linejoin:bevel;stroke:#000000;stroke-width:0.231477009591;fill:none"/>
	<polyline points="3.89353069616e-08,28.7213259668 179.999991635,28.7213259668" style="stroke-linejoin:bevel;stroke:#000000;stroke-width:0.231477009591;fill:none"/>
	<polyline points="106.099862987,8.6652181307 106.099862987,28.7212721307" style="stroke-linejoin:bevel;stroke:#000000;stroke-width:0.802242170028;fill:none"/>
	<polyline points="117.979063772,3.6512046307 127.588922046,3.6512046307" style="stroke-linejoin:bevel;stroke:#000000;stroke-width:0.802242170028;stroke-linecap:square;fill:none"/>
	<polyline points="39.4225086617,33.7352856307 49.0321663752,33.7352856307" style="stroke-linejoin:bevel;stroke:#000000;stroke-width:0.802242170028;stroke-linecap:square;fill:none"/>
	<polyline points="157.311993873,14.620863366 157.311993873,30.6015271932" style="stroke-linejoin:bevel;stroke:#000000;stroke-width:0.651821734944;stroke-linecap:round;fill:none"/>
	<polyline points="137.973946807,9.606849866 137.973946807,26.2142653807" style="stroke-linejoin:bevel;stroke:#000000;stroke-width:0.651821734944;stroke-linecap:round;fill:none"/>
	<polyline points="119.809178699,4.592836366 119.809178699,21.2002518807" style="stroke-linejoin:bevel;stroke:#000000;stroke-width:0.651821734944;stroke-linecap:round;fill:none"/>
	<polyline points="95.357840465,9.606849866 95.357840465,23.7072586307" style="stroke-linejoin:bevel;stroke:#000000;stroke-width:0.651821734944;stroke-linecap:round;fill:none"/>
	<polyline points="86.1410808493,14.620863366 86.1410808493,28.7212721307" style="stroke-linejoin:bevel;stroke:#000000;stroke-width:0.651821734944;stroke-linecap:round;fill:none"/>
	<polyline points="78.8629394132,17.7506105927 78.8629394132,3.6512046307" style="stroke-linejoin:bevel;stroke:#000000;stroke-width:0.651821734944;stroke-linecap:round;fill:none"/>
	<polyline points="69.6463803581,25.2716308427 69.6463803581,8.6652181307" style="stroke-linejoin:bevel;stroke:#000000;stroke-width:0.651821734944;stroke-linecap:round;fill:none"/>
	<polyline points="56.4186105029,30.2856443427 56.4186105029,17.4397417557" style="stroke-linejoin:bevel;stroke:#000000;stroke-width:0.651821734944;stroke-linecap:round;fill:none"/>
	<polyline points="47.2020514477,35.2996578427 47.2020514477,19.9467485057" style="stroke-linejoin:bevel;stroke:#000000;stroke-width:0.651821734944;stroke-linecap:round;fill:none"/>
	<path d="M161.38939 10.921524C162.01614 10.921524 162.54863 11.082975 162.98786 11.406881C163.38497 11.761873 163.58352 12.206115 163.58352 12.738603C163.58352 13.637114 163.12324 14.477463 162.20467 15.261654C161.26404 16.044843 160.25623 16.436939 159.18022 16.436939C158.55347 16.436939 158.02599 16.274485 157.5978 15.95058C157.19066 15.595588 156.98609 15.151346 156.98609 14.618858C156.98609 13.720347 157.4564 12.879998 158.39703 12.095806C159.3156 11.312617 160.31339 10.921524 161.38939 10.921524" style="stroke-width:1.00280273"/>
	<path d="M142.05034 5.9075107C142.67709 5.9075107 143.21059 6.068962 143.64881 6.3928672C144.04592 6.7478594 144.24447 7.192101 144.24447 7.7245892C144.24447 8.6231005 143.78519 9.4634491 142.86562 10.247641C141.92499 11.03083 140.91718 11.422926 139.84117 11.422926C139.21442 11.422926 138.68694 11.260472 138.25875 10.936566C137.85161 10.581574 137.64804 10.137333 137.64804 9.6048443C137.64804 8.7063331 138.11835 7.8659844 139.05798 7.0817927C139.97755 6.2986038 140.97534 5.9075107 142.05034 5.9075107" style="stroke-width:1.00280273"/>
	<path d="M123.88557 0.89349721C124.51233 0.89349721 125.04582 1.0549485 125.48404 1.3788537C125.88115 1.7338459 126.07971 2.1780875 126.07971 2.7105757C126.07971 3.6090869 125.62042 4.4494356 124.70085 5.2336273C123.76022 6.0168162 122.75241 6.4089121 121.6764 6.4089121C121.04965 6.4089121 120.52217 6.246458 120.09398 5.9225528C119.68684 5.5675606 119.48327 5.123319 119.48327 4.5908308C119.48327 3.6923196 119.95358 2.8519709 120.89321 2.0677792C121.81278 1.2845903 122.80957 0.89349721 123.88557 0.89349721" style="stroke-width:1.00280273"/>
	<path d="M99.435237 5.9075107C100.06199 5.9075107 100.59448 6.068962 101.0327 6.3928672C101.42981 6.7478594 101.62837 7.192101 101.62837 7.7245892C101.62837 8.6231005 101.16908 9.4634491 100.24951 10.247641C99.309886 11.03083 98.301067 11.422926 97.22506 11.422926C96.598308 11.422926 96.070834 11.260472 95.642637 10.936566C95.235499 10.581574 95.03193 10.137333 95.03193 9.6048443C95.03193 8.7063331 95.502245 7.8659844 96.441871 7.0817927C97.361441 6.2986038 98.359229 5.9075107 99.435237 5.9075107" style="stroke-width:1.00280273"/>
	<path d="M90.218477 10.921524C90.845229 10.921524 91.377717 11.082975 91.816945 11.406881C92.213052 11.761873 92.411607 12.206115 92.411607 12.738603C92.411607 13.637114 91.952323 14.477463 91.032753 15.261654C90.093127 16.044843 89.08531 16.436939 88.009303 16.436939C87.382551 16.436939 86.855077 16.274485 86.42688 15.95058C86.018739 15.595588 85.81517 15.151346 85.81517 14.618858C85.81517 13.720347 86.285485 12.879998 87.225111 12.095806C88.144681 11.312617 89.14247 10.921524 90.218477 10.921524" style="stroke-width:1.00280273"/>
	<path d="M76.990507 15.935538C77.617258 15.935538 78.149947 16.096989 78.588673 16.420894C78.985683 16.775886 79.183636 17.220128 79.183636 17.752616C79.183636 18.651128 78.724553 19.491476 77.805284 20.275668C76.865156 21.058857 75.857139 21.450953 74.781232 21.450953C74.15448 21.450953 73.626906 21.288499 73.198609 20.964593C72.79127 20.609601 72.587601 20.16536 72.587601 19.632871C72.587601 18.73436 73.057615 17.894011 73.997742 17.10982C74.917011 16.326631 75.9146 15.935538 76.990507 15.935538" style="stroke-width:1.00280273"/>
	<path d="M67.773947 23.456558C68.400699 23.456558 68.933388 23.618009 69.372114 23.941915C69.769124 24.296907 69.967578 24.741148 69.967578 25.273637C69.967578 26.172148 69.507994 27.012496 68.588725 27.796688C67.648597 28.579877 66.64058 28.971973 65.564673 28.971973C64.937921 28.971973 64.410347 28.809519 63.98205 28.485614C63.574711 28.130621 63.371042 27.68638 63.371042 27.153892C63.371042 26.25538 63.841056 25.415032 64.781183 24.63084C65.700452 23.847651 66.69804 23.456558 67.773947 23.456558" style="stroke-width:1.00280273"/>
	<path d="M54.546178 28.470572C55.172929 28.470572 55.705718 28.632023 56.144445 28.955928C56.541354 29.31092 56.739808 29.755162 56.739808 30.28765C56.739808 31.186161 56.280224 32.02651 55.360955 32.810702C54.420827 33.593891 53.41281 33.985986 52.336903 33.985986C51.710151 33.985986 51.182577 33.823532 50.75438 33.499627C50.346941 33.144635 50.143272 32.700393 50.143272 32.167905C50.143272 31.269394 50.613286 30.429045 51.553413 29.644854C52.472682 28.861665 53.470271 28.470572 54.546178 28.470572" style="stroke-width:1.00280273"/>
	<path d="M45.329618 33.484585C45.95637 33.484585 46.489159 33.646036 46.927885 33.969942C47.324795 34.324934 47.523249 34.769175 47.523249 35.301664C47.523249 36.200175 47.063665 37.040524 46.144396 37.824715C45.204268 38.607904 44.196251 39.0 43.120344 39.0C42.493592 39.0 41.966018 38.837546 41.537821 38.513641C41.130382 38.158649 40.926713 37.714407 40.926713 37.181919C40.926713 36.283407 41.396727 35.443059 42.336854 34.658867C43.256123 33.875678 44.253711 33.484585 45.329618 33.484585" style="stroke-width:1.00280273"/>
	<path d="M13.807117 18.567895C13.807117 18.567895 13.848937 18.567895 13.932467 18.567895C13.984717 18.556865 14.026527 18.551855 14.057818 18.551855C15.520205 18.551855 16.721563 19.069301 17.66169 20.103191C18.601818 21.116022 19.071831 22.301334 19.071831 23.660132C19.071831 25.35186 18.37719 26.7257 16.987907 27.780648C16.622285 28.073467 16.141742 28.308123 15.546378 28.485619C15.619478 29.331984 15.656085 30.015896 15.656085 30.538356C15.656085 30.642647 15.640345 31.023712 15.609055 31.682554C15.556805 32.893939 15.138941 33.943874 14.355552 34.831354C13.60345 35.708807 12.663322 36.148034 11.535169 36.148034C10.480121 36.148034 9.5818097 35.776997 8.8401368 35.034923C8.0880348 34.272793 7.7119838 33.35924 7.7119838 32.293261C7.7119838 31.729685 7.9312968 31.24834 8.3700229 30.852233C8.8087491 30.465151 9.3206799 30.27161 9.9056147 30.27161C10.427875 30.27161 10.866601 30.476182 11.221793 30.88332C11.587415 31.259371 11.770226 31.729685 11.770226 32.293261C11.770226 32.794662 11.587415 33.227873 11.221793 33.593896C10.856172 33.958916 10.417445 34.142429 9.9056147 34.142429C9.6967309 34.142429 9.498176 34.105329 9.3101505 34.03212C9.8847564 34.878486 10.647288 35.301669 11.597844 35.301669C12.496155 35.301669 13.232613 34.935646 13.807119 34.204602C14.413013 33.4525 14.742032 32.570034 14.794278 31.557203C14.815138 30.930452 14.825568 30.574457 14.825568 30.491224C14.825568 29.760181 14.799498 29.159502 14.747248 28.689188C14.099638 28.793479 13.519917 28.846628 13.007987 28.846628C11.190407 28.846628 9.6444859 28.125612 8.3700239 26.683582C7.1165206 25.231524 6.4897689 23.508709 6.4897689 21.513131C6.4897689 21.094963 6.5263709 20.67178 6.5994755 20.243583C6.6830085 19.888591 6.7822864 19.502512 6.8972076 19.084343C6.9598826 18.844673 7.1374791 18.462606 7.4298964 17.941148C7.5343884 17.783708 7.6519169 17.588162 7.7824818 17.353506C7.9130467 17.117847 8.0045023 16.964418 8.0566481 16.891214C8.1819984 16.629482 8.4326991 16.27449 8.8087501 15.825234C8.9132422 15.710915 9.0229488 15.582556 9.13787 15.441161C9.2526909 15.300769 9.3493611 15.183441 9.4276799 15.089177C9.5059989 14.994917 9.5634594 14.921709 9.6000617 14.869564C9.6366637 14.817414 9.9316886 14.472454 10.485336 13.835674C10.610686 13.699293 10.736037 13.5589 10.861387 13.412491C10.986738 13.266082 11.088622 13.148754 11.166941 13.059505C11.245261 12.971255 11.305328 12.91109 11.347145 12.880003C10.877031 11.323653 10.579399 10.080178 10.454049 9.1505797C10.370419 8.4085057 10.328698 7.3906609 10.328698 6.0950398C10.328698 4.9568588 10.589828 3.8908795 11.112088 2.8991076C11.613489 1.8752461 12.323774 1.0338946 13.243044 0.37605601C13.305724 0.33393831 13.368394 0.31287941 13.431069 0.31287941C13.525129 0.31287941 13.593022 0.33393831 13.634738 0.37605601C14.334695 1.2224215 14.940488 2.3245017 15.452318 3.6822965C15.974678 5.0400914 16.235808 6.2775499 16.235808 7.3956749C16.235808 8.6491783 15.938076 9.8244631 15.342712 10.921529C14.663714 12.080769 13.786262 13.282127 12.710355 14.524599C12.981914 15.380993 13.347536 16.72876 13.80712 18.5679M15.468062 27.686385C16.14696 27.435684 16.679749 27.012501 17.066229 26.417839C17.484097 25.843234 17.692981 25.195423 17.692981 24.474408C17.692981 23.54481 17.379605 22.719503 16.752853 21.998488C16.105243 21.257417 15.285251 20.839248 14.292878 20.744985C14.856954 23.502692 15.248649 25.817161 15.468062 27.686385M7.9000073 23.158726C7.9000073 24.453344 8.422267 25.592528 9.4668865 26.574272C10.532365 27.524929 11.733622 28.000257 13.070659 28.000257C13.613877 28.000257 14.146666 27.958137 14.668926 27.874907C14.460042 25.89036 14.047389 23.513718 13.431066 20.74498C12.689393 20.82921 12.099244 21.089944 11.660518 21.529171C11.221791 21.988455 11.002378 22.505901 11.002378 23.080507C11.002378 24.072279 11.535167 24.876527 12.600645 25.49325C12.684175 25.58751 12.725996 25.685788 12.725996 25.791083C12.725996 25.895374 12.684176 25.989638 12.600645 26.07287C12.517115 26.16713 12.417834 26.214266 12.302913 26.214266C12.292483 26.214266 12.235023 26.203236 12.130531 26.182176C11.378429 25.775038 10.803924 25.252578 10.407014 24.615798C10.020534 23.92587 9.8272938 23.236944 9.8272938 22.547016C9.8272938 21.648505 10.109282 20.834229 10.673359 20.103186C11.258293 19.372143 12.020925 18.901828 12.961052 18.693245C12.595431 17.230156 12.297698 16.086961 12.067856 15.261654C11.858972 15.501324 11.608272 15.78612 11.315754 16.115039C11.023337 16.443959 10.850955 16.645522 10.798709 16.718727C10.328695 17.32442 9.9682879 17.799748 9.7175872 18.144712C9.2684319 18.760433 8.939312 19.287907 8.7304282 19.727135C8.5111153 20.228536 8.3178752 20.771052 8.150708 21.356689C7.9835408 21.920264 7.9000073 22.520943 7.9000073 23.158726M14.433869 3.2430639C13.451924 3.7234064 12.684179 4.4133347 12.130531 5.3118459C11.556026 6.241444 11.268823 7.2392327 11.268823 8.3042092C11.268823 9.2448381 11.50378 10.513384 11.973893 12.111851C12.914021 10.97367 13.619092 9.9237356 14.089206 8.9620478C14.580077 7.939189 14.825564 6.8732097 14.825564 5.7661156C14.825564 4.9307809 14.694999 4.0894294 14.433869 3.2430639" style="stroke-width:1.00280273"/>
	<path d="M30.099552 13.381399C30.099552 13.516778 30.172662 13.642128 30.318865 13.75745C30.527849 13.913888 30.689702 14.034224 30.804623 14.117456C30.961361 14.200686 31.128428 14.410275 31.306024 14.744208C31.441804 15.058085 31.509694 15.43915 31.509694 15.888406C31.509694 16.796945 31.180674 17.491888 30.522635 17.97223C29.843637 18.452573 28.981828 18.693245 27.937209 18.693245C27.080715 18.693245 26.359901 18.483659 25.774966 18.066494C25.148214 17.679412 24.834838 17.130879 24.834838 16.420894C24.834838 16.086961 24.965403 15.773084 25.226533 15.480265C25.498192 15.229565 25.811568 15.104214 26.16666 15.104214C26.532282 15.104214 26.835229 15.235581 27.075501 15.49631C27.33663 15.747011 27.467195 16.054871 27.467195 16.420894C27.467195 16.588362 27.33663 16.770872 27.075501 16.969427C26.793412 17.156951 26.652418 17.334448 26.652418 17.501916C26.652418 17.752616 26.777768 17.935126 27.028469 18.050449C27.289599 18.164768 27.592546 18.222931 27.937209 18.222931C28.386465 18.222931 28.71027 18.003317 28.908724 17.565092C29.09675 17.073719 29.190712 16.515158 29.190712 15.888406C29.190712 15.888406 29.190712 15.559487 29.190712 15.559487C29.190712 15.183436 29.175072 14.8485 29.143782 14.556684C29.122822 14.33707 29.034076 14.138515 28.877337 13.961019C28.731129 13.772492 28.501286 13.679232 28.187911 13.679232C28.187911 13.679232 26.5741 13.679232 26.5741 13.679232C26.396504 13.679232 26.307656 13.579952 26.307656 13.381399C26.307656 13.213931 26.396506 13.114654 26.5741 13.083567C26.5741 13.083567 28.187911 13.083567 28.187911 13.083567C28.553532 13.083567 28.814662 12.968245 28.9714 12.738603C29.096751 12.551079 29.159426 12.221157 29.159426 11.751845C29.159426 11.751845 29.159426 11.109048 29.159426 11.109048C29.159426 11.109048 29.159426 10.952611 29.159426 10.952611C29.159426 9.7402227 28.715485 9.1345298 27.827604 9.1345298C27.044114 9.1345298 26.652419 9.3491296 26.652419 9.7773264C26.652419 9.9237356 26.777769 10.080173 27.02847 10.247641C27.268742 10.414106 27.388877 10.571546 27.388877 10.716953C27.388877 11.040858 27.268742 11.323648 27.02847 11.563318C26.809057 11.782932 26.537498 11.892237 26.213693 11.892237C25.900317 11.892237 25.628758 11.782932 25.398916 11.563318C25.179502 11.312617 25.069896 11.03083 25.069896 10.716953C25.069896 10.101232 25.34667 9.5998303 25.900317 9.2127485C26.474823 8.8477283 27.127748 8.6652182 27.858891 8.6652182C28.830406 8.6652182 29.639969 8.8527423 30.287579 9.2287933C30.92476 9.5948163 31.24335 10.169422 31.24335 10.952611C31.24335 11.516186 31.18589 11.939369 31.070968 12.221157C30.945618 12.524003 30.815053 12.707516 30.679274 12.76969C30.522636 12.84289 30.392071 12.921113 30.287579 13.005348C30.162229 13.10964 30.099553 13.23499 30.099553 13.381399" style="stroke-width:1.00280273"/>
	<path d="M28.64238 18.943946C29.02886 18.943946 29.360487 18.898816 29.637361 18.810573C29.914134 18.721323 30.089123 18.6772 30.162228 18.6772C30.256188 18.6772 30.329395 18.70327 30.381541 18.75542C30.423361 18.78651 30.449531 18.82862 30.459961 18.88077C30.459961 18.91186 30.444221 18.95398 30.412931 19.006121C30.412931 19.006121 24.725135 25.633644 24.725135 25.633644C24.725135 25.633644 28.062562 25.633644 28.062562 25.633644C28.062562 25.633644 28.062562 23.001287 28.062562 23.001287C28.062562 22.834821 28.109592 22.688412 28.203657 22.563062C28.360294 22.437712 28.490859 22.359493 28.595351 22.328406C28.762519 22.255206 28.971402 22.071689 29.222103 21.779873C29.430987 21.549228 29.681688 21.14209 29.974205 20.557456C30.005495 20.474226 30.062955 20.432106 30.146587 20.432106C30.303225 20.432106 30.392073 20.526366 30.412931 20.713894C30.412931 20.713894 30.412931 25.633644 30.412931 25.633644C30.412931 25.633644 31.85446 25.633644 31.85446 25.633644C32.032056 25.633644 32.136448 25.727904 32.167836 25.916434C32.167836 26.114989 32.063344 26.214267 31.85446 26.214267C31.85446 26.214267 30.412931 26.214267 30.412931 26.214267C30.412931 26.214267 30.412931 26.370704 30.412931 26.370704C30.412931 26.893164 30.543496 27.336403 30.804626 27.702426C31.107573 28.067446 31.462765 28.250959 31.870104 28.250959C32.026842 28.250959 32.105161 28.329179 32.105161 28.485615C32.105161 28.642052 32.026841 28.721273 31.870104 28.721273C31.598545 28.721273 31.154604 28.684173 30.538282 28.610965C29.974205 28.516705 29.535479 28.470573 29.222103 28.470573C28.898298 28.470573 28.459572 28.516703 27.905924 28.610965C27.32099 28.684165 26.887478 28.721273 26.60539 28.721273C26.448752 28.721273 26.370333 28.642053 26.370333 28.485615C26.370333 28.329177 26.448753 28.250959 26.60539 28.250959C27.002399 28.250959 27.352277 28.067446 27.655224 27.702426C27.926783 27.336403 28.062562 26.893164 28.062562 26.370704C28.062562 26.370704 28.062562 26.214267 28.062562 26.214267C28.062562 26.214267 24.725135 26.214267 24.725135 26.214267C24.495392 26.214267 24.338654 26.161117 24.255121 26.056826C24.1402 25.983626 24.082739 25.87933 24.082739 25.743952C24.082739 25.701832 24.182019 25.566456 24.380471 25.336814C24.610213 25.075083 24.84527 24.756191 25.085542 24.38014C25.378059 23.930885 25.654833 23.471601 25.915963 23.001287C26.198051 22.468798 26.427793 21.853078 26.60539 21.153121C26.793415 20.453165 26.887478 19.737164 26.887478 19.006121C26.887478 18.797538 26.981438 18.693246 27.169466 18.693246C27.211286 18.693246 27.294817 18.713306 27.420167 18.755416C27.461987 18.765446 27.545517 18.784496 27.670868 18.810566C27.796218 18.836636 27.895495 18.859706 27.9686 18.880766C28.208871 18.922886 28.433399 18.943946 28.642383 18.943946" style="stroke-width:1.00280273"/>
	<path d="M85.81517 27.467769C85.81517 27.467769 95.683752 22.098763 95.683752 22.098763C95.683752 22.098763 95.683752 24.60577 95.683752 24.60577C95.683752 24.60577 85.81517 29.974776 85.81517 29.974776C85.81517 29.974776 85.81517 27.467769 85.81517 27.467769" style="stroke-width:1.00280273;fill-rule:evenodd"/>
	<path d="M69.32047 7.7657041C69.32047 7.7657041 79.18865 2.3977013 79.18865 2.3977013C79.18865 2.3977013 79.18865 4.904708 79.18865 4.904708C79.18865 4.904708 69.32047 10.272711 69.32047 10.272711C69.32047 10.272711 69.32047 7.7657041 69.32047 7.7657041" style="stroke-width:1.00280273;fill-rule:evenodd"/>
	<path d="M46.876141 18.869738C46.876141 18.869738 56.744522 16.186238 56.744522 16.186238C56.744522 16.186238 56.744522 18.693245 56.744522 18.693245C56.744522 18.693245 46.876141 21.376745 46.876141 21.376745C46.876141 21.376745 46.876141 18.869738 46.876141 18.869738" style="stroke-width:1.00280273;fill-rule:evenodd"/>
	<path d="M142.20778 11.704713C142.51063 11.704713 142.83453 12.19007 143.1785 13.161786C143.5024 14.133501 143.66485 15.058085 143.66485 15.935538C143.66485 16.676609 143.48234 17.412666 143.11632 18.144712C142.74027 18.927901 142.29102 19.606798 141.76855 20.181404C141.76855 20.181404 140.15505 21.983441 140.15505 21.983441C139.66367 22.558047 139.22043 23.220899 138.82332 23.973001C138.4573 24.704045 138.27479 25.451133 138.27479 26.214266C138.27479 26.214266 137.64804 26.214266 137.64804 26.214266C137.64804 26.214266 137.64804 21.200252 137.64804 21.200252C137.64804 21.200252 138.27479 21.200252 138.27479 21.200252C138.62978 20.980638 139.15224 20.625646 139.84117 20.134273C140.15505 19.904631 140.62536 19.512535 141.25211 18.958988C141.76354 18.488673 142.14962 18.008331 142.41135 17.51796C142.68311 16.9955 142.81849 16.468026 142.81849 15.935538C142.81849 14.692062 142.45848 13.454604 141.73747 12.221157C141.73747 12.221157 141.73747 12.195087 141.73747 12.142937C141.73747 12.028617 141.77957 11.934354 141.86282 11.861149C141.96711 11.756858 142.08243 11.704712 142.20778 11.704712" style="stroke-width:1.00280273"/>
	<path d="M128.17657 1.9504513C127.95194 1.7258235 127.83963 1.4570723 127.83963 1.1441979C127.83963 0.83032064 127.95194 0.56156951 128.17657 0.33694171C128.40019 0.1123139 128.66995 0.0 128.98282 0.0C129.2967 0.0 129.56244 0.1123139 129.78205 0.33694171C130.00167 0.56156951 130.11097 0.83032064 130.11097 1.1441979C130.11097 1.4570723 130.00167 1.7258235 129.78205 1.9504513C129.56244 2.1750791 129.2967 2.287393 128.98282 2.287393C128.66995 2.287393 128.40019 2.1750791 128.17657 1.9504513" style="stroke-width:1.00280273"/>
	<polyline points="175.086121085,8.6652181307 175.086121085,28.7212721307" style="stroke-linejoin:bevel;stroke:#000000;stroke-width:0.802242170028;fill:none"/>
	<polyline points="178.74635094,8.6652181307 178.74635094,28.7212721307" style="stroke-linejoin:bevel;stroke:#000000;stroke-width:2.50700675;fill:none"/>
</svg>
